GTL002.ufo
<glyph name="A" format="2">
	<advance width="528"/>
	<unicode hex="0041"/>
	<anchor x="261" y="0" name="bottom"/>
	<anchor x="264" y="700" name="top"/>
	<outline>
		<contour>
			<point x="49" y="0" type="curve" smooth="yes"/>
			<point x="151" y="0" type="line" smooth="yes"/>
			<point x="171" y="0"/>
			<point x="186" y="20"/>
			<point x="191" y="40" type="curve" smooth="yes"/>
			<point x="209" y="120" type="line" smooth="yes"/>
			<point x="212" y="133"/>
			<point x="218" y="146"/>
			<point x="233" y="146" type="curve" smooth="yes"/>
			<point x="284" y="146" type="line" smooth="yes"/>
			<point x="297" y="146"/>
			<point x="312" y="140"/>
			<point x="314" y="128" type="curve" smooth="yes"/>
			<point x="330" y="43" type="line" smooth="yes"/>
			<point x="335" y="19"/>
			<point x="345" y="0"/>
			<point x="363" y="0" type="curve" smooth="yes"/>
			<point x="480" y="-1" type="line" smooth="yes"/>
			<point x="506" y="-1"/>
			<point x="516" y="27"/>
			<point x="516" y="54" type="curve" smooth="yes"/>
			<point x="516" y="99"/>
			<point x="424" y="552"/>
			<point x="411" y="639" type="curve" smooth="yes"/>
			<point x="406" y="672"/>
			<point x="378" y="700"/>
			<point x="342" y="700" type="curve" smooth="yes"/>
			<point x="185" y="700" type="line" smooth="yes"/>
			<point x="148" y="700"/>
			<point x="123" y="662"/>
			<point x="118" y="623" type="curve" smooth="yes"/>
			<point x="95" y="444"/>
			<point x="12" y="114"/>
			<point x="12" y="41" type="curve" smooth="yes"/>
			<point x="12" y="13"/>
			<point x="31" y="0"/>
		</contour>
		<contour>
			<point x="246" y="304" type="line" smooth="yes"/>
			<point x="235" y="304"/>
			<point x="231" y="310"/>
			<point x="231" y="321" type="curve" smooth="yes"/>
			<point x="231" y="337"/>
			<point x="251" y="510"/>
			<point x="252" y="516" type="curve" smooth="yes"/>
			<point x="254" y="528"/>
			<point x="258" y="535"/>
			<point x="264" y="535" type="curve" smooth="yes"/>
			<point x="270" y="535"/>
			<point x="273" y="528"/>
			<point x="275" y="516" type="curve" smooth="yes"/>
			<point x="276" y="510"/>
			<point x="298" y="337"/>
			<point x="298" y="321" type="curve" smooth="yes"/>
			<point x="298" y="310"/>
			<point x="293" y="304"/>
			<point x="283" y="304" type="curve" smooth="yes"/>
		</contour>
	</outline>
</glyph>
<glyph name="B" format="2">
	<advance width="489"/>
	<unicode hex="0042"/>
	<outline>
		<contour>
			<point x="58" y="0" type="curve" smooth="yes"/>
			<point x="321" y="0" type="line" smooth="yes"/>
			<point x="417" y="0"/>
			<point x="479" y="83"/>
			<point x="479" y="199" type="curve" smooth="yes"/>
			<point x="479" y="336"/>
			<point x="389" y="361"/>
			<point x="389" y="378" type="curve" smooth="yes"/>
			<point x="389" y="395"/>
			<point x="462" y="414"/>
			<point x="462" y="525" type="curve" smooth="yes"/>
			<point x="462" y="633"/>
			<point x="400" y="700"/>
			<point x="303" y="700" type="curve" smooth="yes"/>
			<point x="58" y="700" type="line" smooth="yes"/>
			<point x="28" y="700"/>
			<point x="18" y="690"/>
			<point x="18" y="660" type="curve" smooth="yes"/>
			<point x="18" y="40" type="line" smooth="yes"/>
			<point x="18" y="10"/>
			<point x="28" y="0"/>
		</contour>
		<contour>
			<point x="213" y="143" type="line" smooth="yes"/>
			<point x="193" y="143"/>
			<point x="183" y="153"/>
			<point x="183" y="173" type="curve" smooth="yes"/>
			<point x="183" y="276" type="line" smooth="yes"/>
			<point x="183" y="296"/>
			<point x="193" y="306"/>
			<point x="213" y="306" type="curve" smooth="yes"/>
			<point x="232" y="306" type="line" smooth="yes"/>
			<point x="271" y="306"/>
			<point x="291" y="286"/>
			<point x="291" y="226" type="curve" smooth="yes"/>
			<point x="291" y="162"/>
			<point x="267" y="143"/>
			<point x="232" y="143" type="curve" smooth="yes"/>
		</contour>
		<contour>
			<point x="213" y="442" type="line" smooth="yes"/>
			<point x="193" y="442"/>
			<point x="183" y="450"/>
			<point x="183" y="470" type="curve" smooth="yes"/>
			<point x="183" y="535" type="line" smooth="yes"/>
			<point x="183" y="556"/>
			<point x="193" y="566"/>
			<point x="213" y="566" type="curve" smooth="yes"/>
			<point x="232" y="566" type="line" smooth="yes"/>
			<point x="262" y="566"/>
			<point x="280" y="553"/>
			<point x="280" y="506" type="curve" smooth="yes"/>
			<point x="280" y="450"/>
			<point x="262" y="442"/>
			<point x="232" y="442" type="curve" smooth="yes"/>
		</contour>
	</outline>
</glyph>
<glyph name="C" format="2">
	<advance width="446"/>
	<unicode hex="0043"/>
	<outline>
		<contour>
			<point x="226" y="-10" type="curve" smooth="yes"/>
			<point x="371" y="-9"/>
			<point x="428" y="64"/>
			<point x="428" y="174" type="curve" smooth="yes"/>
			<point x="428" y="207" type="line" smooth="yes"/>
			<point x="428" y="225"/>
			<point x="418" y="236"/>
			<point x="401" y="236" type="curve" smooth="yes"/>
			<point x="289" y="236" type="line" smooth="yes"/>
			<point x="274" y="236"/>
			<point x="263" y="226"/>
			<point x="263" y="210" type="curve" smooth="yes"/>
			<point x="263" y="180" type="line" smooth="yes"/>
			<point x="263" y="150"/>
			<point x="256" y="130"/>
			<point x="225" y="130" type="curve" smooth="yes"/>
			<point x="191" y="130"/>
			<point x="183" y="150"/>
			<point x="183" y="180" type="curve" smooth="yes"/>
			<point x="183" y="510" type="line" smooth="yes"/>
			<point x="183" y="560"/>
			<point x="194" y="574"/>
			<point x="225" y="574" type="curve" smooth="yes"/>
			<point x="252" y="574"/>
			<point x="263" y="561"/>
			<point x="263" y="511" type="curve" smooth="yes"/>
			<point x="263" y="473" type="line" smooth="yes"/>
			<point x="263" y="460"/>
			<point x="269" y="453"/>
			<point x="283" y="453" type="curve" smooth="yes"/>
			<point x="408" y="453" type="line" smooth="yes"/>
			<point x="419" y="454"/>
			<point x="428" y="459"/>
			<point x="428" y="473" type="curve" smooth="yes"/>
			<point x="428" y="500" type="line" smooth="yes"/>
			<point x="428" y="660"/>
			<point x="339" y="710"/>
			<point x="233" y="710" type="curve" smooth="yes"/>
			<point x="124" y="710"/>
			<point x="18" y="658"/>
			<point x="18" y="510" type="curve" smooth="yes"/>
			<point x="18" y="174" type="line" smooth="yes"/>
			<point x="18" y="64"/>
			<point x="76" y="-11"/>
		</contour>
	</outline>
</glyph>
<glyph name="D" format="2">
	<advance width="472"/>
	<unicode hex="0044"/>
	<outline>
		<contour>
			<point x="58" y="0" type="curve" smooth="yes"/>
			<point x="223" y="0" type="line" smooth="yes"/>
			<point x="427" y="0"/>
			<point x="458" y="144"/>
			<point x="458" y="350" type="curve" smooth="yes"/>
			<point x="458" y="566"/>
			<point x="419" y="700"/>
			<point x="223" y="700" type="curve" smooth="yes"/>
			<point x="58" y="700" type="line" smooth="yes"/>
			<point x="28" y="700"/>
			<point x="18" y="690"/>
			<point x="18" y="660" type="curve" smooth="yes"/>
			<point x="18" y="40" type="line" smooth="yes"/>
			<point x="18" y="10"/>
			<point x="28" y="0"/>
		</contour>
		<contour>
			<point x="213" y="140" type="curve" smooth="yes"/>
			<point x="193" y="140"/>
			<point x="183" y="150"/>
			<point x="183" y="170" type="curve" smooth="yes"/>
			<point x="183" y="535" type="line" smooth="yes"/>
			<point x="183" y="555"/>
			<point x="193" y="565"/>
			<point x="213" y="565" type="curve" smooth="yes"/>
			<point x="263" y="565"/>
			<point x="283" y="490"/>
			<point x="283" y="350" type="curve" smooth="yes"/>
			<point x="283" y="198"/>
			<point x="263" y="140"/>
		</contour>
	</outline>
</glyph>
<glyph name="E" format="2">
	<advance width="386"/>
	<unicode hex="0045"/>
	<outline>
		<contour>
			<point x="58" y="0" type="curve" smooth="yes"/>
			<point x="332" y="0" type="line" smooth="yes"/>
			<point x="362" y="0"/>
			<point x="372" y="10"/>
			<point x="372" y="40" type="curve" smooth="yes"/>
			<point x="372" y="110" type="line" smooth="yes"/>
			<point x="372" y="140"/>
			<point x="362" y="150"/>
			<point x="332" y="150" type="curve" smooth="yes"/>
			<point x="213" y="150" type="line" smooth="yes"/>
			<point x="193" y="150"/>
			<point x="183" y="160"/>
			<point x="183" y="180" type="curve" smooth="yes"/>
			<point x="183" y="266" type="line" smooth="yes"/>
			<point x="183" y="286"/>
			<point x="193" y="296"/>
			<point x="213" y="296" type="curve" smooth="yes"/>
			<point x="292" y="296" type="line" smooth="yes"/>
			<point x="322" y="296"/>
			<point x="332" y="306"/>
			<point x="332" y="336" type="curve" smooth="yes"/>
			<point x="332" y="392" type="line" smooth="yes"/>
			<point x="332" y="422"/>
			<point x="322" y="432"/>
			<point x="292" y="432" type="curve" smooth="yes"/>
			<point x="213" y="432" type="line" smooth="yes"/>
			<point x="193" y="432"/>
			<point x="183" y="440"/>
			<point x="183" y="460" type="curve" smooth="yes"/>
			<point x="183" y="531" type="line" smooth="yes"/>
			<point x="183" y="552"/>
			<point x="193" y="562"/>
			<point x="213" y="562" type="curve" smooth="yes"/>
			<point x="332" y="562" type="line" smooth="yes"/>
			<point x="362" y="562"/>
			<point x="372" y="574"/>
			<point x="372" y="605" type="curve" smooth="yes"/>
			<point x="372" y="660" type="line" smooth="yes"/>
			<point x="372" y="690"/>
			<point x="362" y="700"/>
			<point x="332" y="700" type="curve" smooth="yes"/>
			<point x="58" y="700" type="line" smooth="yes"/>
			<point x="28" y="700"/>
			<point x="18" y="690"/>
			<point x="18" y="660" type="curve" smooth="yes"/>
			<point x="18" y="40" type="line" smooth="yes"/>
			<point x="18" y="10"/>
			<point x="28" y="0"/>
		</contour>
	</outline>
</glyph>
<glyph name="G" format="2">
	<advance width="504"/>
	<unicode hex="0047"/>
	<outline>
		<contour>
			<point x="238" y="-8" type="curve" smooth="yes"/>
			<point x="283" y="-8"/>
			<point x="308" y="0"/>
			<point x="338" y="21" type="curve" smooth="yes"/>
			<point x="352" y="31"/>
			<point x="365" y="42"/>
			<point x="376" y="42" type="curve" smooth="yes"/>
			<point x="397" y="42"/>
			<point x="412" y="0"/>
			<point x="444" y="0" type="curve" smooth="yes"/>
			<point x="476" y="0"/>
			<point x="486" y="10"/>
			<point x="486" y="40" type="curve" smooth="yes"/>
			<point x="486" y="392" type="line" smooth="yes"/>
			<point x="486" y="422"/>
			<point x="476" y="432"/>
			<point x="446" y="432" type="curve" smooth="yes"/>
			<point x="298" y="432" type="line" smooth="yes"/>
			<point x="268" y="432"/>
			<point x="258" y="422"/>
			<point x="258" y="392" type="curve" smooth="yes"/>
			<point x="258" y="336" type="line" smooth="yes"/>
			<point x="258" y="306"/>
			<point x="278" y="296"/>
			<point x="298" y="296" type="curve" smooth="yes"/>
			<point x="326" y="296"/>
			<point x="336" y="286"/>
			<point x="336" y="266" type="curve" smooth="yes"/>
			<point x="336" y="170" type="line" smooth="yes"/>
			<point x="336" y="150"/>
			<point x="326" y="140"/>
			<point x="306" y="140" type="curve" smooth="yes"/>
			<point x="210" y="140"/>
			<point x="189" y="211"/>
			<point x="189" y="357" type="curve" smooth="yes"/>
			<point x="189" y="519"/>
			<point x="226" y="572"/>
			<point x="276" y="572" type="curve" smooth="yes"/>
			<point x="306" y="572"/>
			<point x="326" y="552"/>
			<point x="326" y="530" type="curve" smooth="yes"/>
			<point x="326" y="510"/>
			<point x="336" y="500"/>
			<point x="356" y="500" type="curve" smooth="yes"/>
			<point x="458" y="500" type="line" smooth="yes"/>
			<point x="477" y="500"/>
			<point x="486" y="510"/>
			<point x="486" y="530" type="curve" smooth="yes"/>
			<point x="486" y="620"/>
			<point x="432" y="708"/>
			<point x="280" y="708" type="curve" smooth="yes"/>
			<point x="92" y="708"/>
			<point x="14" y="586"/>
			<point x="14" y="357" type="curve" smooth="yes"/>
			<point x="14" y="156"/>
			<point x="79" y="-8"/>
		</contour>
	</outline>
</glyph>
<glyph name="H" format="2">
	<advance width="486"/>
	<unicode hex="0048"/>
	<outline>
		<contour>
			<point x="58" y="-1" type="curve" smooth="yes"/>
			<point x="143" y="0" type="line" smooth="yes"/>
			<point x="173" y="0"/>
			<point x="183" y="10"/>
			<point x="183" y="40" type="curve" smooth="yes"/>
			<point x="183" y="263" type="line" smooth="yes"/>
			<point x="183" y="292"/>
			<point x="193" y="302"/>
			<point x="223" y="303" type="curve" smooth="yes"/>
			<point x="263" y="304" type="line" smooth="yes"/>
			<point x="293" y="305"/>
			<point x="303" y="295"/>
			<point x="303" y="265" type="curve" smooth="yes"/>
			<point x="303" y="40" type="line" smooth="yes"/>
			<point x="303" y="10"/>
			<point x="313" y="0"/>
			<point x="343" y="0" type="curve" smooth="yes"/>
			<point x="428" y="0" type="line" smooth="yes"/>
			<point x="453" y="0"/>
			<point x="468" y="10"/>
			<point x="468" y="40" type="curve" smooth="yes"/>
			<point x="468" y="660" type="line" smooth="yes"/>
			<point x="468" y="690"/>
			<point x="453" y="700"/>
			<point x="438" y="700" type="curve" smooth="yes"/>
			<point x="343" y="700" type="line" smooth="yes"/>
			<point x="313" y="700"/>
			<point x="303" y="691"/>
			<point x="303" y="661" type="curve" smooth="yes"/>
			<point x="303" y="490" type="line" smooth="yes"/>
			<point x="303" y="460"/>
			<point x="293" y="450"/>
			<point x="263" y="450" type="curve" smooth="yes"/>
			<point x="223" y="450" type="line" smooth="yes"/>
			<point x="193" y="450"/>
			<point x="183" y="460"/>
			<point x="183" y="490" type="curve" smooth="yes"/>
			<point x="183" y="660" type="line" smooth="yes"/>
			<point x="183" y="690"/>
			<point x="173" y="700"/>
			<point x="143" y="700" type="curve" smooth="yes"/>
			<point x="58" y="700" type="line" smooth="yes"/>
			<point x="28" y="700"/>
			<point x="18" y="688"/>
			<point x="18" y="670" type="curve" smooth="yes"/>
			<point x="18" y="40" type="line" smooth="yes"/>
			<point x="18" y="10"/>
			<point x="28" y="-1"/>
		</contour>
	</outline>
</glyph>
<glyph name="I" format="2">
	<advance width="201"/>
	<unicode hex="0049"/>
	<outline>
		<contour>
			<point x="58" y="-1" type="curve" smooth="yes"/>
			<point x="143" y="0" type="line" smooth="yes"/>
			<point x="173" y="0"/>
			<point x="183" y="10"/>
			<point x="183" y="40" type="curve" smooth="yes"/>
			<point x="183" y="660" type="line" smooth="yes"/>
			<point x="183" y="690"/>
			<point x="173" y="700"/>
			<point x="143" y="700" type="curve" smooth="yes"/>
			<point x="58" y="700" type="line" smooth="yes"/>
			<point x="28" y="700"/>
			<point x="18" y="690"/>
			<point x="18" y="660" type="curve" smooth="yes"/>
			<point x="18" y="40" type="line" smooth="yes"/>
			<point x="18" y="10"/>
			<point x="28" y="-1"/>
		</contour>
	</outline>
</glyph>
<glyph name="J" format="2">
	<advance width="297"/>
	<unicode hex="004A"/>
	<outline>
		<contour>
			<point x="54" y="-1" type="curve" smooth="yes"/>
			<point x="149" y="0" type="line" smooth="yes"/>
			<point x="249" y="0"/>
			<point x="279" y="54"/>
			<point x="279" y="154" type="curve" smooth="yes"/>
			<point x="279" y="660" type="line" smooth="yes"/>
			<point x="279" y="690"/>
			<point x="269" y="700"/>
			<point x="239" y="700" type="curve" smooth="yes"/>
			<point x="154" y="700" type="line" smooth="yes"/>
			<point x="124" y="699"/>
			<point x="114" y="688"/>
			<point x="114" y="670" type="curve" smooth="yes"/>
			<point x="114" y="190" type="line" smooth="yes"/>
			<point x="114" y="160"/>
			<point x="104" y="150"/>
			<point x="74" y="150" type="curve" smooth="yes"/>
			<point x="39" y="150" type="line" smooth="yes"/>
			<point x="24" y="150"/>
			<point x="14" y="135"/>
			<point x="14" y="121" type="curve" smooth="yes"/>
			<point x="14" y="40" type="line" smooth="yes"/>
			<point x="14" y="10"/>
			<point x="24" y="0"/>
		</contour>
	</outline>
</glyph>
<glyph name="K" format="2">
	<advance width="483"/>
	<unicode hex="004B"/>
	<outline>
		<contour>
			<point x="58" y="-1" type="curve" smooth="yes"/>
			<point x="143" y="0" type="line" smooth="yes"/>
			<point x="173" y="0"/>
			<point x="183" y="10"/>
			<point x="183" y="40" type="curve" smooth="yes"/>
			<point x="183" y="272" type="line"/>
			<point x="183" y="316" type="line"/>
			<point x="188" y="303"/>
			<point x="195" y="290"/>
			<point x="202" y="276" type="curve" smooth="yes"/>
			<point x="244" y="195"/>
			<point x="308" y="94"/>
			<point x="308" y="40" type="curve" smooth="yes"/>
			<point x="308" y="10"/>
			<point x="318" y="-1"/>
			<point x="348" y="-1" type="curve" smooth="yes"/>
			<point x="433" y="0" type="line" smooth="yes"/>
			<point x="463" y="0"/>
			<point x="464" y="20"/>
			<point x="464" y="50" type="curve" smooth="yes"/>
			<point x="339" y="348" type="line" smooth="yes"/>
			<point x="336" y="355"/>
			<point x="333" y="364"/>
			<point x="333" y="372" type="curve" smooth="yes"/>
			<point x="333" y="380"/>
			<point x="337" y="388"/>
			<point x="341" y="398" type="curve" smooth="yes"/>
			<point x="445" y="606" type="line" smooth="yes"/>
			<point x="458" y="634"/>
			<point x="464" y="647"/>
			<point x="464" y="661" type="curve" smooth="yes"/>
			<point x="463" y="679" type="line" smooth="yes"/>
			<point x="463" y="695"/>
			<point x="457" y="700"/>
			<point x="439" y="700" type="curve" smooth="yes"/>
			<point x="338" y="700" type="line" smooth="yes"/>
			<point x="321" y="700"/>
			<point x="311" y="690"/>
			<point x="298" y="660" type="curve" smooth="yes"/>
			<point x="209" y="470" type="line" smooth="yes"/>
			<point x="200" y="453"/>
			<point x="196" y="448"/>
			<point x="191" y="448" type="curve" smooth="yes"/>
			<point x="185" y="448"/>
			<point x="183" y="453"/>
			<point x="183" y="459" type="curve" smooth="yes"/>
			<point x="183" y="660" type="line" smooth="yes"/>
			<point x="183" y="690"/>
			<point x="173" y="700"/>
			<point x="143" y="700" type="curve" smooth="yes"/>
			<point x="58" y="700" type="line" smooth="yes"/>
			<point x="28" y="700"/>
			<point x="18" y="690"/>
			<point x="18" y="660" type="curve" smooth="yes"/>
			<point x="18" y="40" type="line" smooth="yes"/>
			<point x="18" y="10"/>
			<point x="28" y="-1"/>
		</contour>
	</outline>
</glyph>
<glyph name="L" format="2">
	<advance width="390"/>
	<unicode hex="004C"/>
	<outline>
		<contour>
			<point x="58" y="0" type="curve" smooth="yes"/>
			<point x="332" y="0" type="line" smooth="yes"/>
			<point x="362" y="0"/>
			<point x="372" y="10"/>
			<point x="372" y="40" type="curve" smooth="yes"/>
			<point x="372" y="110" type="line" smooth="yes"/>
			<point x="372" y="140"/>
			<point x="362" y="150"/>
			<point x="332" y="150" type="curve" smooth="yes"/>
			<point x="213" y="150" type="line" smooth="yes"/>
			<point x="193" y="150"/>
			<point x="183" y="160"/>
			<point x="183" y="180" type="curve" smooth="yes"/>
			<point x="183" y="660" type="line" smooth="yes"/>
			<point x="183" y="690"/>
			<point x="172" y="700"/>
			<point x="142" y="700" type="curve" smooth="yes"/>
			<point x="58" y="700" type="line" smooth="yes"/>
			<point x="28" y="700"/>
			<point x="18" y="689"/>
			<point x="18" y="660" type="curve" smooth="yes"/>
			<point x="18" y="40" type="line" smooth="yes"/>
			<point x="18" y="10"/>
			<point x="28" y="0"/>
		</contour>
	</outline>
</glyph>
<glyph name="M" format="2">
	<advance width="611"/>
	<unicode hex="004D"/>
	<outline>
		<contour>
			<point x="58" y="-1" type="curve" smooth="yes"/>
			<point x="143" y="0" type="line" smooth="yes"/>
			<point x="173" y="0"/>
			<point x="183" y="10"/>
			<point x="183" y="40" type="curve" smooth="yes"/>
			<point x="183" y="308" type="line" smooth="yes"/>
			<point x="183" y="337"/>
			<point x="190" y="342"/>
			<point x="198" y="342" type="curve" smooth="yes"/>
			<point x="207" y="342"/>
			<point x="213" y="331"/>
			<point x="229" y="290" type="curve" smooth="yes"/>
			<point x="263" y="203"/>
			<point x="277" y="171"/>
			<point x="307" y="171" type="curve" smooth="yes"/>
			<point x="334" y="171"/>
			<point x="348" y="213"/>
			<point x="381" y="279" type="curve" smooth="yes"/>
			<point x="402" y="321"/>
			<point x="406" y="337"/>
			<point x="418" y="337" type="curve" smooth="yes"/>
			<point x="428" y="337"/>
			<point x="428" y="332"/>
			<point x="428" y="308" type="curve" smooth="yes"/>
			<point x="428" y="40" type="line" smooth="yes"/>
			<point x="428" y="10"/>
			<point x="438" y="0"/>
			<point x="468" y="0" type="curve" smooth="yes"/>
			<point x="553" y="0" type="line" smooth="yes"/>
			<point x="583" y="0"/>
			<point x="593" y="10"/>
			<point x="593" y="40" type="curve" smooth="yes"/>
			<point x="593" y="660" type="line" smooth="yes"/>
			<point x="593" y="690"/>
			<point x="583" y="700"/>
			<point x="553" y="700" type="curve" smooth="yes"/>
			<point x="468" y="700" type="line" smooth="yes"/>
			<point x="438" y="700"/>
			<point x="412" y="687"/>
			<point x="402" y="660" type="curve" smooth="yes"/>
			<point x="334" y="485"/>
			<point x="325" y="464"/>
			<point x="305" y="464" type="curve" smooth="yes"/>
			<point x="286" y="464"/>
			<point x="277" y="495"/>
			<point x="213" y="660" type="curve" smooth="yes"/>
			<point x="201" y="690"/>
			<point x="173" y="700"/>
			<point x="143" y="700" type="curve" smooth="yes"/>
			<point x="58" y="700" type="line" smooth="yes"/>
			<point x="28" y="700"/>
			<point x="18" y="690"/>
			<point x="18" y="660" type="curve" smooth="yes"/>
			<point x="18" y="40" type="line" smooth="yes"/>
			<point x="18" y="10"/>
			<point x="28" y="-1"/>
		</contour>
	</outline>
</glyph>
<glyph name="N" format="2">
	<advance width="510"/>
	<unicode hex="004E"/>
	<outline>
		<contour>
			<point x="58" y="0" type="curve" smooth="yes"/>
			<point x="143" y="0" type="line" smooth="yes"/>
			<point x="173" y="0"/>
			<point x="183" y="10"/>
			<point x="183" y="40" type="curve" smooth="yes"/>
			<point x="183" y="286" type="line" smooth="yes"/>
			<point x="183" y="302"/>
			<point x="189" y="306"/>
			<point x="196" y="306" type="curve" smooth="yes"/>
			<point x="202" y="306"/>
			<point x="207" y="299"/>
			<point x="213" y="286" type="curve" smooth="yes"/>
			<point x="327" y="44" type="line" smooth="yes"/>
			<point x="342" y="13"/>
			<point x="350" y="0"/>
			<point x="384" y="0" type="curve" smooth="yes"/>
			<point x="452" y="0" type="line" smooth="yes"/>
			<point x="482" y="0"/>
			<point x="492" y="10"/>
			<point x="492" y="40" type="curve" smooth="yes"/>
			<point x="492" y="660" type="line" smooth="yes"/>
			<point x="492" y="690"/>
			<point x="482" y="700"/>
			<point x="452" y="700" type="curve" smooth="yes"/>
			<point x="367" y="700" type="line" smooth="yes"/>
			<point x="337" y="700"/>
			<point x="327" y="690"/>
			<point x="327" y="660" type="curve" smooth="yes"/>
			<point x="327" y="421" type="line" smooth="yes"/>
			<point x="327" y="412"/>
			<point x="322" y="408"/>
			<point x="315" y="408" type="curve" smooth="yes"/>
			<point x="308" y="408"/>
			<point x="303" y="414"/>
			<point x="300" y="421" type="curve" smooth="yes"/>
			<point x="185" y="660" type="line" smooth="yes"/>
			<point x="170" y="691"/>
			<point x="161" y="700"/>
			<point x="126" y="700" type="curve" smooth="yes"/>
			<point x="58" y="700" type="line" smooth="yes"/>
			<point x="28" y="700"/>
			<point x="18" y="690"/>
			<point x="18" y="660" type="curve" smooth="yes"/>
			<point x="18" y="40" type="line" smooth="yes"/>
			<point x="18" y="10"/>
			<point x="28" y="0"/>
		</contour>
	</outline>
</glyph>
<glyph name="O" format="2">
	<advance width="446"/>
	<unicode hex="004F"/>
	<outline>
		<contour>
			<point x="226" y="-10" type="curve" smooth="yes"/>
			<point x="371" y="-9"/>
			<point x="428" y="64"/>
			<point x="428" y="174" type="curve" smooth="yes"/>
			<point x="428" y="490" type="line" smooth="yes"/>
			<point x="428" y="650"/>
			<point x="339" y="700"/>
			<point x="233" y="700" type="curve" smooth="yes"/>
			<point x="124" y="700"/>
			<point x="18" y="648"/>
			<point x="18" y="500" type="curve" smooth="yes"/>
			<point x="18" y="174" type="line" smooth="yes"/>
			<point x="18" y="64"/>
			<point x="76" y="-11"/>
		</contour>
		<contour>
			<point x="225" y="130" type="curve" smooth="yes"/>
			<point x="191" y="130"/>
			<point x="183" y="150"/>
			<point x="183" y="180" type="curve" smooth="yes"/>
			<point x="183" y="500" type="line" smooth="yes"/>
			<point x="183" y="550"/>
			<point x="194" y="564"/>
			<point x="225" y="564" type="curve" smooth="yes"/>
			<point x="252" y="564"/>
			<point x="263" y="551"/>
			<point x="263" y="501" type="curve" smooth="yes"/>
			<point x="263" y="180" type="line" smooth="yes"/>
			<point x="263" y="150"/>
			<point x="256" y="130"/>
		</contour>
	</outline>
</glyph>
<glyph name="P" format="2">
	<advance width="475"/>
	<unicode hex="0050"/>
	<outline>
		<contour>
			<point x="58" y="0" type="curve" smooth="yes"/>
			<point x="143" y="0" type="line" smooth="yes"/>
			<point x="173" y="0"/>
			<point x="183" y="10"/>
			<point x="183" y="40" type="curve" smooth="yes"/>
			<point x="183" y="226" type="line" smooth="yes"/>
			<point x="183" y="246"/>
			<point x="189" y="256"/>
			<point x="203" y="256" type="curve" smooth="yes"/>
			<point x="358" y="256"/>
			<point x="461" y="325"/>
			<point x="461" y="471" type="curve" smooth="yes"/>
			<point x="461" y="649"/>
			<point x="350" y="700"/>
			<point x="255" y="700" type="curve" smooth="yes"/>
			<point x="58" y="700" type="line" smooth="yes"/>
			<point x="28" y="700"/>
			<point x="18" y="690"/>
			<point x="18" y="660" type="curve" smooth="yes"/>
			<point x="18" y="40" type="line" smooth="yes"/>
			<point x="18" y="10"/>
			<point x="28" y="0"/>
		</contour>
		<contour>
			<point x="203" y="387" type="curve" smooth="yes"/>
			<point x="191" y="387"/>
			<point x="183" y="392"/>
			<point x="183" y="407" type="curve" smooth="yes"/>
			<point x="183" y="541" type="line" smooth="yes"/>
			<point x="183" y="555"/>
			<point x="189" y="561"/>
			<point x="204" y="561" type="curve" smooth="yes"/>
			<point x="262" y="561"/>
			<point x="286" y="541"/>
			<point x="286" y="471" type="curve" smooth="yes"/>
			<point x="286" y="412"/>
			<point x="264" y="387"/>
		</contour>
	</outline>
</glyph>
<glyph name="Q" format="2">
	<advance width="494"/>
	<unicode hex="0051"/>
	<outline>
		<contour>
			<point x="226" y="-10" type="curve" smooth="yes"/>
			<point x="300" y="-10"/>
			<point x="321" y="29"/>
			<point x="341" y="29" type="curve" smooth="yes"/>
			<point x="362" y="29"/>
			<point x="372" y="0"/>
			<point x="451" y="0" type="curve" smooth="yes"/>
			<point x="470" y="0"/>
			<point x="476" y="10"/>
			<point x="476" y="24" type="curve" smooth="yes"/>
			<point x="476" y="104" type="line" smooth="yes"/>
			<point x="476" y="122"/>
			<point x="473" y="128"/>
			<point x="461" y="128" type="curve" smooth="yes"/>
			<point x="425" y="128"/>
			<point x="420" y="133"/>
			<point x="420" y="145" type="curve" smooth="yes"/>
			<point x="420" y="151"/>
			<point x="428" y="157"/>
			<point x="428" y="174" type="curve" smooth="yes"/>
			<point x="428" y="490" type="line" smooth="yes"/>
			<point x="428" y="650"/>
			<point x="339" y="700"/>
			<point x="233" y="700" type="curve" smooth="yes"/>
			<point x="124" y="700"/>
			<point x="18" y="648"/>
			<point x="18" y="500" type="curve" smooth="yes"/>
			<point x="18" y="174" type="line" smooth="yes"/>
			<point x="18" y="64"/>
			<point x="76" y="-10"/>
		</contour>
		<contour>
			<point x="225" y="130" type="curve" smooth="yes"/>
			<point x="191" y="130"/>
			<point x="183" y="150"/>
			<point x="183" y="180" type="curve" smooth="yes"/>
			<point x="183" y="500" type="line" smooth="yes"/>
			<point x="183" y="550"/>
			<point x="194" y="564"/>
			<point x="225" y="564" type="curve" smooth="yes"/>
			<point x="252" y="564"/>
			<point x="263" y="551"/>
			<point x="263" y="501" type="curve" smooth="yes"/>
			<point x="263" y="180" type="line" smooth="yes"/>
			<point x="263" y="150"/>
			<point x="256" y="130"/>
		</contour>
	</outline>
</glyph>
<glyph name="R" format="2">
	<advance width="482"/>
	<unicode hex="0052"/>
	<outline>
		<contour>
			<point x="58" y="0" type="curve" smooth="yes"/>
			<point x="143" y="0" type="line" smooth="yes"/>
			<point x="173" y="0"/>
			<point x="183" y="10"/>
			<point x="183" y="40" type="curve" smooth="yes"/>
			<point x="183" y="226" type="line" smooth="yes"/>
			<point x="183" y="246"/>
			<point x="189" y="256"/>
			<point x="203" y="256" type="curve" smooth="yes"/>
			<point x="218" y="256"/>
			<point x="223" y="236"/>
			<point x="223" y="210" type="curve" smooth="yes"/>
			<point x="223" y="78"/>
			<point x="306" y="0"/>
			<point x="410" y="0" type="curve" smooth="yes"/>
			<point x="450" y="0"/>
			<point x="470" y="30"/>
			<point x="470" y="60" type="curve" smooth="yes"/>
			<point x="470" y="116" type="line" smooth="yes"/>
			<point x="470" y="146"/>
			<point x="460" y="166"/>
			<point x="430" y="166" type="curve" smooth="yes"/>
			<point x="381" y="166"/>
			<point x="354" y="226"/>
			<point x="354" y="273" type="curve" smooth="yes"/>
			<point x="354" y="290"/>
			<point x="372" y="303"/>
			<point x="390" y="319" type="curve" smooth="yes"/>
			<point x="423" y="347"/>
			<point x="461" y="385"/>
			<point x="461" y="471" type="curve" smooth="yes"/>
			<point x="461" y="649"/>
			<point x="350" y="700"/>
			<point x="255" y="700" type="curve" smooth="yes"/>
			<point x="58" y="700" type="line" smooth="yes"/>
			<point x="28" y="700"/>
			<point x="18" y="690"/>
			<point x="18" y="660" type="curve" smooth="yes"/>
			<point x="18" y="40" type="line" smooth="yes"/>
			<point x="18" y="10"/>
			<point x="28" y="0"/>
		</contour>
		<contour>
			<point x="203" y="387" type="curve" smooth="yes"/>
			<point x="191" y="387"/>
			<point x="183" y="392"/>
			<point x="183" y="407" type="curve" smooth="yes"/>
			<point x="183" y="541" type="line" smooth="yes"/>
			<point x="183" y="555"/>
			<point x="189" y="561"/>
			<point x="204" y="561" type="curve" smooth="yes"/>
			<point x="262" y="561"/>
			<point x="286" y="541"/>
			<point x="286" y="471" type="curve" smooth="yes"/>
			<point x="286" y="412"/>
			<point x="264" y="387"/>
		</contour>
	</outline>
</glyph>
<glyph name="S" format="2">
	<advance width="399"/>
	<unicode hex="0053"/>
	<outline>
		<contour>
			<point x="154" y="-12" type="curve" smooth="yes"/>
			<point x="86" y="-12"/>
			<point x="16" y="14"/>
			<point x="15" y="30" type="curve" smooth="yes"/>
			<point x="11" y="118" type="line" smooth="yes"/>
			<point x="10" y="134"/>
			<point x="28" y="146"/>
			<point x="49" y="146" type="curve" smooth="yes"/>
			<point x="70" y="146"/>
			<point x="119" y="130"/>
			<point x="147" y="130" type="curve" smooth="yes"/>
			<point x="175" y="130"/>
			<point x="215" y="156"/>
			<point x="215" y="186" type="curve" smooth="yes"/>
			<point x="215" y="266"/>
			<point x="16" y="366"/>
			<point x="16" y="506" type="curve" smooth="yes"/>
			<point x="16" y="636"/>
			<point x="151" y="718"/>
			<point x="230" y="718" type="curve" smooth="yes"/>
			<point x="309" y="718"/>
			<point x="360" y="688"/>
			<point x="368" y="676" type="curve" smooth="yes"/>
			<point x="376" y="664"/>
			<point x="374" y="652"/>
			<point x="374" y="640" type="curve" smooth="yes"/>
			<point x="373" y="583" type="line" smooth="yes"/>
			<point x="373" y="566"/>
			<point x="364" y="547"/>
			<point x="338" y="548" type="curve" smooth="yes"/>
			<point x="312" y="549"/>
			<point x="284" y="567"/>
			<point x="248" y="568" type="curve" smooth="yes"/>
			<point x="212" y="569"/>
			<point x="204" y="556"/>
			<point x="204" y="521" type="curve" smooth="yes"/>
			<point x="204" y="456"/>
			<point x="389" y="378"/>
			<point x="389" y="197" type="curve" smooth="yes"/>
			<point x="389" y="66"/>
			<point x="322" y="-12"/>
		</contour>
	</outline>
</glyph>
<glyph name="T" format="2">
	<advance width="434"/>
	<unicode hex="0054"/>
	<outline>
		<contour>
			<point x="173" y="0" type="curve" smooth="yes"/>
			<point x="258" y="0" type="line" smooth="yes"/>
			<point x="288" y="0"/>
			<point x="298" y="10"/>
			<point x="298" y="40" type="curve" smooth="yes"/>
			<point x="298" y="531" type="line" smooth="yes"/>
			<point x="298" y="552"/>
			<point x="308" y="562"/>
			<point x="328" y="562" type="curve" smooth="yes"/>
			<point x="384" y="562" type="line" smooth="yes"/>
			<point x="414" y="562"/>
			<point x="424" y="574"/>
			<point x="424" y="605" type="curve" smooth="yes"/>
			<point x="424" y="660" type="line" smooth="yes"/>
			<point x="424" y="690"/>
			<point x="414" y="700"/>
			<point x="384" y="700" type="curve" smooth="yes"/>
			<point x="51" y="700" type="line" smooth="yes"/>
			<point x="20" y="700"/>
			<point x="10" y="690"/>
			<point x="10" y="660" type="curve" smooth="yes"/>
			<point x="10" y="602" type="line" smooth="yes"/>
			<point x="10" y="577"/>
			<point x="20" y="562"/>
			<point x="50" y="562" type="curve" smooth="yes"/>
			<point x="93" y="562" type="line" smooth="yes"/>
			<point x="123" y="562"/>
			<point x="133" y="552"/>
			<point x="133" y="522" type="curve" smooth="yes"/>
			<point x="133" y="40" type="line" smooth="yes"/>
			<point x="133" y="10"/>
			<point x="143" y="0"/>
		</contour>
	</outline>
</glyph>
<glyph name="U" format="2">
	<advance width="446"/>
	<unicode hex="0055"/>
	<outline>
		<contour>
			<point x="226" y="-10" type="curve" smooth="yes"/>
			<point x="371" y="-9"/>
			<point x="428" y="64"/>
			<point x="428" y="174" type="curve" smooth="yes"/>
			<point x="428" y="660" type="line" smooth="yes"/>
			<point x="428" y="690"/>
			<point x="413" y="700"/>
			<point x="398" y="700" type="curve" smooth="yes"/>
			<point x="303" y="700" type="line" smooth="yes"/>
			<point x="273" y="700"/>
			<point x="263" y="691"/>
			<point x="263" y="661" type="curve" smooth="yes"/>
			<point x="263" y="190" type="line" smooth="yes"/>
			<point x="263" y="160"/>
			<point x="256" y="130"/>
			<point x="225" y="130" type="curve" smooth="yes"/>
			<point x="191" y="130"/>
			<point x="183" y="160"/>
			<point x="183" y="190" type="curve" smooth="yes"/>
			<point x="183" y="660" type="line" smooth="yes"/>
			<point x="183" y="690"/>
			<point x="173" y="700"/>
			<point x="143" y="700" type="curve" smooth="yes"/>
			<point x="58" y="700" type="line" smooth="yes"/>
			<point x="28" y="699"/>
			<point x="18" y="688"/>
			<point x="18" y="670" type="curve" smooth="yes"/>
			<point x="18" y="174" type="line" smooth="yes"/>
			<point x="18" y="64"/>
			<point x="76" y="-11"/>
		</contour>
	</outline>
</glyph>
<glyph name="V" format="2">
	<advance width="501"/>
	<unicode hex="0056"/>
	<outline>
		<contour>
			<point x="165" y="0" type="curve" smooth="yes"/>
			<point x="330" y="0" type="line" smooth="yes"/>
			<point x="356" y="0"/>
			<point x="364" y="11"/>
			<point x="370" y="40" type="curve" smooth="yes"/>
			<point x="464" y="483"/>
			<point x="491" y="637"/>
			<point x="491" y="663" type="curve" smooth="yes"/>
			<point x="491" y="683"/>
			<point x="481" y="700"/>
			<point x="459" y="700" type="curve" smooth="yes"/>
			<point x="356" y="700" type="line" smooth="yes"/>
			<point x="339" y="700"/>
			<point x="324" y="683"/>
			<point x="322" y="663" type="curve" smooth="yes"/>
			<point x="268" y="222" type="line" smooth="yes"/>
			<point x="266" y="205"/>
			<point x="264" y="195"/>
			<point x="257" y="195" type="curve" smooth="yes"/>
			<point x="249" y="195"/>
			<point x="246" y="205"/>
			<point x="244" y="221" type="curve" smooth="yes"/>
			<point x="194" y="666" type="line" smooth="yes"/>
			<point x="192" y="686"/>
			<point x="174" y="700"/>
			<point x="160" y="700" type="curve" smooth="yes"/>
			<point x="50" y="700" type="line" smooth="yes"/>
			<point x="20" y="700"/>
			<point x="10" y="687"/>
			<point x="10" y="670" type="curve" smooth="yes"/>
			<point x="10" y="641"/>
			<point x="30" y="568"/>
			<point x="125" y="40" type="curve" smooth="yes"/>
			<point x="130" y="10"/>
			<point x="139" y="0"/>
		</contour>
	</outline>
</glyph>
<glyph name="W" format="2">
	<advance width="758"/>
	<unicode hex="0057"/>
	<outline>
		<contour>
			<point x="165" y="0" type="curve" smooth="yes"/>
			<point x="320" y="0" type="line" smooth="yes"/>
			<point x="346" y="0"/>
			<point x="367" y="11"/>
			<point x="360" y="40" type="curve" smooth="yes"/>
			<point x="344" y="108"/>
			<point x="367" y="429"/>
			<point x="379" y="484" type="curve"/>
			<point x="402" y="40" type="line" smooth="yes"/>
			<point x="404" y="10"/>
			<point x="416" y="0"/>
			<point x="442" y="0" type="curve" smooth="yes"/>
			<point x="587" y="0" type="line" smooth="yes"/>
			<point x="613" y="0"/>
			<point x="621" y="11"/>
			<point x="627" y="40" type="curve" smooth="yes"/>
			<point x="721" y="483"/>
			<point x="748" y="637"/>
			<point x="748" y="663" type="curve" smooth="yes"/>
			<point x="748" y="683"/>
			<point x="738" y="700"/>
			<point x="716" y="700" type="curve" smooth="yes"/>
			<point x="613" y="700" type="line" smooth="yes"/>
			<point x="596" y="700"/>
			<point x="581" y="683"/>
			<point x="579" y="663" type="curve" smooth="yes"/>
			<point x="525" y="222" type="line" smooth="yes"/>
			<point x="523" y="205"/>
			<point x="521" y="195"/>
			<point x="514" y="195" type="curve" smooth="yes"/>
			<point x="506" y="195"/>
			<point x="503" y="205"/>
			<point x="501" y="221" type="curve" smooth="yes"/>
			<point x="451" y="666" type="line" smooth="yes"/>
			<point x="449" y="686"/>
			<point x="431" y="700"/>
			<point x="417" y="700" type="curve" smooth="yes"/>
			<point x="326" y="700" type="line" smooth="yes"/>
			<point x="318" y="700"/>
			<point x="311" y="697"/>
			<point x="305" y="691" type="curve" smooth="yes"/>
			<point x="304" y="690"/>
			<point x="304" y="689"/>
			<point x="303" y="688" type="curve" smooth="yes"/>
			<point x="297" y="682"/>
			<point x="293" y="673"/>
			<point x="292" y="663" type="curve" smooth="yes"/>
			<point x="268" y="222" type="line" smooth="yes"/>
			<point x="267" y="205"/>
			<point x="264" y="195"/>
			<point x="257" y="195" type="curve" smooth="yes"/>
			<point x="249" y="195"/>
			<point x="246" y="205"/>
			<point x="244" y="221" type="curve" smooth="yes"/>
			<point x="194" y="666" type="line" smooth="yes"/>
			<point x="192" y="686"/>
			<point x="174" y="700"/>
			<point x="160" y="700" type="curve" smooth="yes"/>
			<point x="50" y="700" type="line" smooth="yes"/>
			<point x="20" y="700"/>
			<point x="10" y="687"/>
			<point x="10" y="670" type="curve" smooth="yes"/>
			<point x="10" y="641"/>
			<point x="30" y="568"/>
			<point x="125" y="40" type="curve" smooth="yes"/>
			<point x="130" y="10"/>
			<point x="139" y="0"/>
		</contour>
	</outline>
</glyph>
<glyph name="X" format="2">
	<advance width="508"/>
	<unicode hex="0058"/>
	<outline>
		<contour>
			<point x="60" y="-1" type="curve" smooth="yes"/>
			<point x="160" y="-1" type="line"/>
			<point x="249" y="244" type="line"/>
			<point x="332" y="-1" type="line"/>
			<point x="455" y="0" type="line" smooth="yes"/>
			<point x="485" y="0"/>
			<point x="505" y="14"/>
			<point x="495" y="40" type="curve" smooth="yes"/>
			<point x="375" y="360" type="line" smooth="yes"/>
			<point x="372" y="369"/>
			<point x="376" y="381"/>
			<point x="381" y="392" type="curve" smooth="yes"/>
			<point x="479" y="623" type="line" smooth="yes"/>
			<point x="483" y="633"/>
			<point x="487" y="653"/>
			<point x="487" y="663" type="curve" smooth="yes"/>
			<point x="486" y="683"/>
			<point x="475" y="700"/>
			<point x="455" y="700" type="curve" smooth="yes"/>
			<point x="376" y="700" type="line" smooth="yes"/>
			<point x="362" y="700"/>
			<point x="350" y="686"/>
			<point x="344" y="671" type="curve" smooth="yes"/>
			<point x="266" y="482" type="line" smooth="yes"/>
			<point x="263" y="475"/>
			<point x="261" y="467"/>
			<point x="256" y="467" type="curve" smooth="yes"/>
			<point x="249" y="467"/>
			<point x="244" y="475"/>
			<point x="242" y="481" type="curve" smooth="yes"/>
			<point x="189" y="666" type="line" smooth="yes"/>
			<point x="183" y="686"/>
			<point x="169" y="700"/>
			<point x="155" y="700" type="curve" smooth="yes"/>
			<point x="50" y="700" type="line" smooth="yes"/>
			<point x="20" y="700"/>
			<point x="10" y="687"/>
			<point x="10" y="670" type="curve" smooth="yes"/>
			<point x="10" y="658"/>
			<point x="17" y="638"/>
			<point x="22" y="627" type="curve" smooth="yes"/>
			<point x="124" y="390" type="line" smooth="yes"/>
			<point x="127" y="383"/>
			<point x="134" y="367"/>
			<point x="130" y="355" type="curve" smooth="yes"/>
			<point x="20" y="40" type="line" smooth="yes"/>
			<point x="11" y="13"/>
			<point x="30" y="-1"/>
		</contour>
	</outline>
</glyph>
<glyph name="Y" format="2">
	<advance width="467"/>
	<unicode hex="0059"/>
	<outline>
		<contour>
			<point x="190" y="-1" type="curve" smooth="yes"/>
			<point x="275" y="0" type="line" smooth="yes"/>
			<point x="305" y="0"/>
			<point x="315" y="10"/>
			<point x="315" y="40" type="curve" smooth="yes"/>
			<point x="315" y="260" type="line" smooth="yes"/>
			<point x="315" y="269"/>
			<point x="317" y="280"/>
			<point x="321" y="292" type="curve" smooth="yes"/>
			<point x="449" y="623" type="line" smooth="yes"/>
			<point x="454" y="633"/>
			<point x="457" y="653"/>
			<point x="457" y="663" type="curve" smooth="yes"/>
			<point x="456" y="683"/>
			<point x="445" y="700"/>
			<point x="425" y="700" type="curve" smooth="yes"/>
			<point x="346" y="700" type="line" smooth="yes"/>
			<point x="332" y="700"/>
			<point x="320" y="686"/>
			<point x="314" y="671" type="curve" smooth="yes"/>
			<point x="246" y="482" type="line" smooth="yes"/>
			<point x="244" y="475"/>
			<point x="241" y="467"/>
			<point x="236" y="467" type="curve" smooth="yes"/>
			<point x="229" y="467"/>
			<point x="224" y="475"/>
			<point x="222" y="481" type="curve" smooth="yes"/>
			<point x="169" y="666" type="line" smooth="yes"/>
			<point x="162" y="686"/>
			<point x="149" y="701"/>
			<point x="135" y="700" type="curve" smooth="yes"/>
			<point x="50" y="700" type="line" smooth="yes"/>
			<point x="20" y="699"/>
			<point x="10" y="687"/>
			<point x="10" y="670" type="curve" smooth="yes"/>
			<point x="10" y="658"/>
			<point x="17" y="638"/>
			<point x="22" y="627" type="curve" smooth="yes"/>
			<point x="144" y="290" type="line" smooth="yes"/>
			<point x="147" y="283"/>
			<point x="150" y="267"/>
			<point x="150" y="255" type="curve" smooth="yes"/>
			<point x="150" y="40" type="line" smooth="yes"/>
			<point x="150" y="10"/>
			<point x="160" y="0"/>
		</contour>
	</outline>
</glyph>
<glyph name="acutecomb.case" format="2">
	<advance width="256"/>
	<outline>
		<contour>
			<point x="96" y="750" type="curve" smooth="yes"/>
			<point x="119" y="750" type="line" smooth="yes"/>
			<point x="141" y="750"/>
			<point x="152" y="762"/>
			<point x="165" y="785" type="curve" smooth="yes"/>
			<point x="178" y="808"/>
			<point x="199" y="845"/>
			<point x="199" y="865" type="curve" smooth="yes"/>
			<point x="199" y="885"/>
			<point x="185" y="890"/>
			<point x="165" y="890" type="curve" smooth="yes"/>
			<point x="129" y="890" type="line" smooth="yes"/>
			<point x="99" y="890"/>
			<point x="94" y="881"/>
			<point x="89" y="850" type="curve" smooth="yes"/>
			<point x="79" y="790" type="line" smooth="yes"/>
			<point x="74" y="759"/>
			<point x="82" y="750"/>
		</contour>
	</outline>
</glyph>
<glyph name="circumflexcomb.case" format="2">
	<advance width="256"/>
	<anchor x="128" y="700" name="_top"/>
	<anchor x="128" y="870" name="top"/>
	<outline>
		<contour>
			<point x="44" y="740" type="curve" smooth="yes"/>
			<point x="52" y="740"/>
			<point x="65" y="745"/>
			<point x="75" y="756" type="curve" smooth="yes"/>
			<point x="108" y="793"/>
			<point x="118" y="803"/>
			<point x="128" y="803" type="curve" smooth="yes"/>
			<point x="138" y="803"/>
			<point x="149" y="795"/>
			<point x="184" y="756" type="curve" smooth="yes"/>
			<point x="194" y="745"/>
			<point x="210" y="740"/>
			<point x="217" y="740" type="curve" smooth="yes"/>
			<point x="233" y="740"/>
			<point x="238" y="751"/>
			<point x="238" y="764" type="curve" smooth="yes"/>
			<point x="238" y="771"/>
			<point x="230" y="788"/>
			<point x="194" y="843" type="curve" smooth="yes"/>
			<point x="178" y="868"/>
			<point x="168" y="883"/>
			<point x="148" y="883" type="curve" smooth="yes"/>
			<point x="108" y="883" type="line" smooth="yes"/>
			<point x="88" y="883"/>
			<point x="78" y="870"/>
			<point x="60" y="843" type="curve" smooth="yes"/>
			<point x="24" y="789"/>
			<point x="16" y="771"/>
			<point x="16" y="764" type="curve" smooth="yes"/>
			<point x="16" y="751"/>
			<point x="28" y="740"/>
		</contour>
	</outline>
</glyph>
<glyph name="gravecomb.case" format="2">
	<advance width="256"/>
	<anchor x="125" y="700" name="_top"/>
	<anchor x="85" y="890" name="top"/>
	<outline>
		<contour>
			<point x="106" y="750" type="curve" smooth="yes"/>
			<point x="131" y="750" type="line" smooth="yes"/>
			<point x="161" y="750"/>
			<point x="181" y="760"/>
			<point x="171" y="790" type="curve" smooth="yes"/>
			<point x="151" y="850" type="line" smooth="yes"/>
			<point x="141" y="880"/>
			<point x="141" y="890"/>
			<point x="111" y="890" type="curve" smooth="yes"/>
			<point x="56" y="890" type="line" smooth="yes"/>
			<point x="26" y="890"/>
			<point x="11" y="876"/>
			<point x="26" y="850" type="curve" smooth="yes"/>
			<point x="61" y="790" type="line" smooth="yes"/>
			<point x="76" y="764"/>
			<point x="86" y="750"/>
		</contour>
	</outline>
</glyph>
